<?xml version="1.0" encoding="UTF-8" standalone="no"?> <!-- Created with Vectornator for iOS (http://vectornator.io/) --><!DOCTYPE svg PUBLIC "-//W3C//DTD SVG 1.1//EN" "http://www.w3.org/Graphics/SVG/1.1/DTD/svg11.dtd">
<svg height="100%" style="fill-rule:nonzero;clip-rule:evenodd;stroke-linecap:round;stroke-linejoin:round;" xmlns:xlink="http://www.w3.org/1999/xlink" xmlns="http://www.w3.org/2000/svg" xml:space="preserve" width="100%" xmlns:vectornator="http://vectornator.io" version="1.1" viewBox="0 0 200 200">
<metadata>
<vectornator:setting key="GuidesVisible" value="1"/>
<vectornator:setting key="OutlineMode" value="0"/>
<vectornator:setting key="CMYKEnabledKey" value="0"/>
<vectornator:setting key="DisplayWhiteBackground" value="0"/>
<vectornator:setting key="DimensionsVisible" value="1"/>
<vectornator:setting key="SnapToGrid" value="0"/>
<vectornator:setting key="Units" value="Pixels"/>
<vectornator:setting key="PencilOnly" value="0"/>
<vectornator:setting key="TimeLapseWatermarkDisabled" value="0"/>
<vectornator:setting key="DynamicGuides" value="0"/>
<vectornator:setting key="SnapToPoints" value="0"/>
<vectornator:setting key="RulersVisible" value="1"/>
<vectornator:setting key="SnapToGuides" value="1"/>
<vectornator:setting key="doHistoryDisabled" value="0"/>
<vectornator:setting key="SnapToEdges" value="0"/>
<vectornator:setting key="IsolateActiveLayer" value="0"/>
</metadata>
<defs/>
<g id="Слой 1" vectornator:layerName="Слой 1">
<path stroke="#ffffff" stroke-width="4.30099" d="M16.5963+175.464L42.6121+175.464L42.6121+175.464C46.3992+182.717+54.1372+187.302+62.6042+187.302L147.265+187.302C154.475+187.302+160.931+182.297+161.697+175.429C162.238+170.584+160.02+166.257+156.415+163.547C164.56+163.132+171.047+156.734+171.047+148.83C171.047+143.819+168.434+139.41+164.459+136.735C171.705+135.515+177.225+129.49+177.225+122.195C177.225+117.185+174.612+112.776+170.637+110.1C178.127+108.84+183.771+102.447+183.385+94.827C182.98+86.8337+175.628+80.7641+167.276+80.7641L92.8272+80.7641C95.4591+68.1808+98.4987+52.4873+98.4987+47.1545C98.4956+30.801+88.5922+12.6985+75.2878+12.6985C69.4773+12.6985+66.0207+12.6985+66.0207+12.6985L66.0207+45.2516L43.0507+92.6016L16.5963+92.6016" fill="none" stroke-linecap="butt" opacity="1" stroke-linejoin="miter"/>
<path stroke="#ffffff" stroke-width="4.30099" d="M19.6854+125.155C17.9793+125.155+16.5963+126.48+16.5963+128.114C16.5963+129.748+17.9793+131.073+19.6854+131.073C21.3914+131.073+22.7744+129.748+22.7744+128.114C22.7744+126.48+21.3914+125.155+19.6854+125.155ZM19.6854+136.992C17.9793+136.992+16.5963+138.317+16.5963+139.952C16.5963+141.586+17.9793+142.911+19.6854+142.911C21.3914+142.911+22.7744+141.586+22.7744+139.952C22.7744+138.317+21.3914+136.992+19.6854+136.992ZM19.6854+148.83C17.9793+148.83+16.5963+150.155+16.5963+151.789C16.5963+153.423+17.9793+154.748+19.6854+154.748C21.3914+154.748+22.7744+153.423+22.7744+151.789C22.7744+150.155+21.3914+148.83+19.6854+148.83ZM19.6854+160.667C17.9793+160.667+16.5963+161.992+16.5963+163.627C16.5963+165.261+17.9793+166.586+19.6854+166.586C21.3914+166.586+22.7744+165.261+22.7744+163.627C22.7744+161.992+21.3914+160.667+19.6854+160.667ZM41.3085+148.83C39.6025+148.83+38.2195+150.155+38.2195+151.789C38.2195+153.423+39.6025+154.748+41.3085+154.748C43.0145+154.748+44.3975+153.423+44.3975+151.789C44.3975+150.155+43.0145+148.83+41.3085+148.83ZM41.3085+160.667C39.6025+160.667+38.2195+161.992+38.2195+163.627C38.2195+165.261+39.6025+166.586+41.3085+166.586C43.0145+166.586+44.3975+165.261+44.3975+163.627C44.3975+161.992+43.0145+160.667+41.3085+160.667Z" fill="#ffffff" stroke-linecap="butt" opacity="1" stroke-linejoin="miter"/>
</g>
</svg>
